{"title":"4 Assassins 2013 BDRip x264 AC3-MiLLENiUM","uid":10622465,"size":937651442,"categoryP":"video","categoryS":"movies","magnet":"?xt=urn:btih:1f5f15cae8427196f55f8e412f9face7800530a5&amp;dn=4+Assassins+2013+BDRip+x264+AC3-MiLLENiUM&amp;tr=udp%3A%2F%2Ftracker.openbittorrent.com%3A80&amp;tr=udp%3A%2F%2Fopen.demonii.com%3A1337&amp;tr=udp%3A%2F%2Ftracker.coppersurfer.tk%3A6969&amp;tr=udp%3A%2F%2Fexodus.desync.com%3A6969","seeders":1,"leechers":0,"uploader":"Xetron","files":4,"time":1406182044,"description":" &lt;a href=&quot;http://s28.postimg.org/6juw7wf7h/i9eeb6o3.jpg&quot; rel=&quot;nofollow&quot; target=&quot;_NEW&quot;&gt;http://s28.postimg.org/6juw7wf7h/i9eeb6o3.jpg&lt;/a&gt;\n       \n4 Assassins 2013 BDRip x264 AC3-MiLLENiUM                  \n\nGeneral\n\nSource...............: COMPLETE.BLURAY-XORBiTANT [THANKS]\nIMDb Information.... : http://www.imdb.com/title/tt1478804/\nSample Included......: yes\n\nGeneral\nComplete name                            : 4 Assassins 2013 BDRip x264 AC3-MiLLENiUM.mkv\nFormat                                   : Matroska\nFormat version                           : Version 2\nFile size                                : 874 MiB\nDuration                                 : 1h 26mn\nOverall bit rate mode                    : Variable\nOverall bit rate                         : 1 409 Kbps\nEncoded date                             : UTC 2014-07-24 03:46:24\nWriting application                      : mkvmerge v7.0.0 ('Where We Going') 32bit built on Jun  9 2014 15:08:34\nWriting library                          : libebml v1.3.0 + libmatroska v1.4.1\n\nVideo\nID                                       : 1\nFormat                                   : AVC\nFormat/Info                              : Advanced Video Codec\nFormat profile                           : &lt;a class=&quot;__cf_email__&quot; href=&quot;/cdn-cgi/l/email-protection&quot; data-cfemail=&quot;c38baaa4ab838ff7edf2&quot;&gt;[email&amp;#160;protected]&lt;/a&gt;&lt;script cf-hash='f9e31' type=&quot;text/javascript&quot;&gt;\n/* &lt;![CDATA[ */!function(){try{var t=&quot;currentScript&quot;in document?document.currentScript:function(){for(var t=document.getElementsByTagName(&quot;script&quot;),e=t.length;e--;)if(t[e].getAttribute(&quot;cf-hash&quot;))return t[e]}();if(t&amp;&amp;t.previousSibling){var e,r,n,i,c=t.previousSibling,a=c.getAttribute(&quot;data-cfemail&quot;);if(a){for(e=&quot;&quot;,r=parseInt(a.substr(0,2),16),n=2;a.length-n;n+=2)i=parseInt(a.substr(n,2),16)^r,e+=String.fromCharCode(i);e=document.createTextNode(e),c.parentNode.replaceChild(e,c)}}}catch(u){}}();/* ]]&gt; */&lt;/script&gt;\nFormat settings, CABAC                   : Yes\nFormat settings, ReFrames                : 3 frames\nCodec ID                                 : V_MPEG4/ISO/AVC\nDuration                                 : 1h 26mn\nBit rate mode                            : Variable\nBit rate                                 : 933 Kbps\nMaximum bit rate                         : 40.0 Mbps\nWidth                                    : 720 pixels\nHeight                                   : 304 pixels\nDisplay aspect ratio                     : 2.35:1\nFrame rate mode                          : Constant\nFrame rate                               : 23.976 fps\nColor space                              : YUV\nChroma subsampling                       : 4:2:0\nBit depth                                : 8 bits\nScan type                                : Progressive\nBits/(Pixel*Frame)                       : 0.178\nStream size                              : 579 MiB (66%)\nWriting library                          : x264 core 142 r2431 ac76440\n\nAudio\nID                                       : 2\nFormat                                   : AC-3\nFormat/Info                              : Audio Coding 3\nMode extension                           : CM (complete main)\nFormat settings, Endianness              : Big\nCodec ID                                 : A_AC3\nDuration                                 : 1h 26mn\nBit rate mode                            : Constant\nBit rate                                 : 448 Kbps\nChannel(s)                               : 6 channels\nChannel positions                        : Front: L C R, Side: L R, LFE\nSampling rate                            : 48.0 KHz\nBit depth                                : 16 bits\nCompression mode                         : Lossy\nStream size                              : 278 MiB (32%)\nLanguage                                 : English\nDefault                                  : Yes\nForced                                   : No\n\nPlot\n\nFour assassins meet in a hotel suite to resolve unfinished business. A tense drama set in the cosmopolitan world of Hong Kong. \n \nScreenshots\n\n","torrent":{"xt":"urn:btih:1f5f15cae8427196f55f8e412f9face7800530a5","amp;dn":"4+Assassins+2013+BDRip+x264+AC3-MiLLENiUM","amp;tr":["udp%3A%2F%2Ftracker.openbittorrent.com%3A80","udp%3A%2F%2Fopen.demonii.com%3A1337","udp%3A%2F%2Ftracker.coppersurfer.tk%3A6969","udp%3A%2F%2Fexodus.desync.com%3A6969"],"infoHash":"1f5f15cae8427196f55f8e412f9face7800530a5","infoHashBuffer":{"type":"Buffer","data":[31,95,21,202,232,66,113,150,245,95,142,65,47,159,172,231,128,5,48,165]},"announce":[],"urlList":[]}}